# xmcd
#
# Track frame offsets: 
#        150
#        12855
#        26906
#        45609
#        56709
#        66436
#        76254
#        86831
#        97582
#        114227
#        137629
#        149349
#        161055
#        173336
#        193457
#        208263
#        227301
#        255521
#
# Disc length: 3894 seconds
#
# Revision: 0
# Processed by: cddbd v1.5.2PL0 Copyright (c) Steve Scherf et al.
# Submitted via: ExactAudioCopy v0.95b3
#
DISCID=f00f3412
DTITLE=Janis Joplin  - Janis - Disc 1  FLAC
DYEAR=1900
DGENRE=
TTITLE0=What Good Can Drinkin' Do (live)
TTITLE1=Trouble In Mind
TTITLE2=Hesitation Blues
TTITLE3=Easy Rider
TTITLE4=Coo Coo
TTITLE5=Down On Me
TTITLE6=The Last Time
TTITLE7=All Is Loneliness
TTITLE8=Call On Me (live)
TTITLE9=Women Is Losers
TTITLE10=Intruder
TTITLE11=Light Is Faster Than Sound
TTITLE12=Bye, Bye Baby
TTITLE13=Farewell Song
TTITLE14=Flower In The Sun (live)
TTITLE15=Misery'n (Alternate Version)
TTITLE16=Road Block (live)
TTITLE17=Ball And Chain (live)
EXTD=
EXTT0=
EXTT1=
EXTT2=
EXTT3=
EXTT4=
EXTT5=
EXTT6=
EXTT7=
EXTT8=
EXTT9=
EXTT10=
EXTT11=
EXTT12=
EXTT13=
EXTT14=
EXTT15=
EXTT16=
EXTT17=
PLAYORDER=
